<?xml version="1.0" encoding="UTF-8"?>
<svg xmlns="http://www.w3.org/2000/svg" style="display: none;">
  
  <!-- 404 Error Icon -->
  <symbol id="error-404" viewBox="0 0 100 100">
    <circle cx="50" cy="50" r="45" fill="#4169E1" opacity="0.1"/>
    <circle cx="50" cy="50" r="35" fill="none" stroke="#4169E1" stroke-width="3"/>
    <path d="M30 30 L70 70 M70 30 L30 70" stroke="#4169E1" stroke-width="4" stroke-linecap="round"/>
    <text x="50" y="85" text-anchor="middle" font-family="Arial, sans-serif" font-size="10" fill="#4169E1">404</text>
  </symbol>
  
  <!-- 500 Error Icon -->
  <symbol id="error-500" viewBox="0 0 100 100">
    <circle cx="50" cy="50" r="45" fill="#DC143C" opacity="0.1"/>
    <polygon points="50,15 80,75 20,75" fill="none" stroke="#DC143C" stroke-width="3"/>
    <text x="50" y="50" text-anchor="middle" font-family="Arial, sans-serif" font-size="12" fill="#DC143C" font-weight="bold">!</text>
    <text x="50" y="85" text-anchor="middle" font-family="Arial, sans-serif" font-size="10" fill="#DC143C">500</text>
  </symbol>
  
  <!-- 403 Error Icon -->
  <symbol id="error-403" viewBox="0 0 100 100">
    <circle cx="50" cy="50" r="45" fill="#FF8C00" opacity="0.1"/>
    <rect x="30" y="35" width="40" height="35" rx="3" fill="none" stroke="#FF8C00" stroke-width="3"/>
    <circle cx="50" cy="57" r="5" fill="none" stroke="#FF8C00" stroke-width="2"/>
    <path d="M35 75 L65 75" stroke="#FF8C00" stroke-width="3" stroke-linecap="round"/>
    <text x="50" y="85" text-anchor="middle" font-family="Arial, sans-serif" font-size="10" fill="#FF8C00">403</text>
  </symbol>
  
  <!-- 401 Error Icon -->
  <symbol id="error-401" viewBox="0 0 100 100">
    <circle cx="50" cy="50" r="45" fill="#9370DB" opacity="0.1"/>
    <path d="M35 45 L35 65 Q35 75 45 75 L55 75 Q65 75 65 65 L65 45" fill="none" stroke="#9370DB" stroke-width="3"/>
    <circle cx="50" cy="35" r="8" fill="none" stroke="#9370DB" stroke-width="3"/>
    <text x="50" y="85" text-anchor="middle" font-family="Arial, sans-serif" font-size="10" fill="#9370DB">401</text>
  </symbol>
  
  <!-- Generic Error Icon -->
  <symbol id="error-generic" viewBox="0 0 100 100">
    <circle cx="50" cy="50" r="45" fill="#696969" opacity="0.1"/>
    <circle cx="50" cy="50" r="35" fill="none" stroke="#696969" stroke-width="3"/>
    <text x="50" y="55" text-anchor="middle" font-family="Arial, sans-serif" font-size="20" fill="#696969" font-weight="bold">⚠</text>
  </symbol>
  
  <!-- Detective Icon for 404 -->
  <symbol id="detective" viewBox="0 0 100 100">
    <circle cx="35" cy="40" r="15" fill="#D2691E" stroke="#8B4513" stroke-width="2"/>
    <path d="M35 55 L35 70" stroke="#8B4513" stroke-width="3"/>
    <path d="M25 45 L15 35" stroke="#8B4513" stroke-width="2" stroke-linecap="round"/>
    <circle cx="30" cy="38" r="2" fill="#000"/>
    <path d="M50 35 L65 25 L70 30 L55 40 Z" fill="#4169E1" stroke="#191970" stroke-width="1"/>
    <circle cx="60" cy="27" r="8" fill="none" stroke="#191970" stroke-width="2"/>
    <path d="M68 27 L75 27" stroke="#191970" stroke-width="2" stroke-linecap="round"/>
  </symbol>
  
  <!-- Shield Icon for Security -->
  <symbol id="shield" viewBox="0 0 100 100">
    <path d="M50 15 Q30 25 30 45 Q30 65 50 85 Q70 65 70 45 Q70 25 50 15" fill="none" stroke="#FF8C00" stroke-width="3"/>
    <path d="M35 40 L47 52 L65 34" fill="none" stroke="#32CD32" stroke-width="3" stroke-linecap="round" stroke-linejoin="round"/>
  </symbol>
  
</svg>